# xmcd CD database file
#
# Track frame offsets:
#	150
#	12460
#	20847
#	31847
#	45550
#	72325
#	93327
#	111772
#	124800
#	141485
#	156007
#	169470
#	189710
#	204447
#
# Disc length: 2914 seconds
#
# Revision: 0
# Processed by: cddbd v1.5.1PL0 Copyright (c) Steve Scherf et al.
# Submitted via: CDex 1.51
#
DISCID=c80b600e
DTITLE=Gypsy Jazz Reunion - Omnibus
DYEAR=2004
DGENRE=Jazz
TTITLE0=Le gars de Rochechouart - Patrick Sausssois and Alma Sinti
TTITLE1=Dolores - Romane
TTITLE2=My one And Only Love - Kiyoshi Kobayashi and Gypsy Swing Gang
TTITLE3=Le temps ne fait rien a l'affaire - Trio Givone
TTITLE4=Lyola - Tchavolo Schimtt
TTITLE5=After you've Gone - Romane Stochelo Rosenberg
TTITLE6=After you've Gone - Tchavolo Schmitt
TTITLE7=Nuages - Laurent Bajata
TTITLE8=Flambee Montalbanaise - Note Manouche
TTITLE9=Chez Jacquent - Kiyoshi kobayashi and Gypsy Swing Gang
TTITLE10=I wonder where my baby is tonight - Francis Alfred Moerman
TTITLE11=The Sheik of Araby - Tchavolo Schmitt
TTITLE12=Antilia - Romane
TTITLE13=It's you or no one - Patrick Saussiois and Alma Sinti
EXTD=YEAR: 20040519
EXTT0=
EXTT1=
EXTT2=
EXTT3=
EXTT4=
EXTT5=
EXTT6=
EXTT7=
EXTT8=
EXTT9=
EXTT10=
EXTT11=
EXTT12=
EXTT13=
PLAYORDER=
